<?xml version="1.0" encoding="utf-8"?>
<svg id="target-svg" xmlns="http://www.w3.org/2000/svg" viewBox="0 0 1500 500" width="1500" height="500">
            <style>
                @import url('https://fonts.googleapis.com/css2?family=Cormorant+Garamond:wght@400;600;700&amp;family=Shippori+Mincho:wght@400;700;800&amp;display=swap');
                .font-jp { font-family: 'Shippori Mincho', 'Yu Mincho', 'Noto Serif JP', serif; }
                .font-en { font-family: 'Cormorant Garamond', 'Georgia', 'Times New Roman', serif; }
            </style>
            <defs>
                <linearGradient id="bgGrad" x1="0%" y1="0%" x2="100%" y2="100%">
                    <stop offset="0%" stop-color="#090806"/>
                    <stop offset="100%" stop-color="#14120E"/>
                </linearGradient>
                <pattern id="grid" width="40" height="40" patternUnits="userSpaceOnUse">
                    <path d="M 40 0 L 0 0 0 40" fill="none" stroke="#C9A84C" stroke-width="0.5" opacity="0.07"/>
                </pattern>
                <pattern id="dots" width="20" height="20" patternUnits="userSpaceOnUse">
                    <circle cx="2" cy="2" r="1" fill="#7A8480" opacity="0.15"/>
                </pattern>
            </defs>
            <rect width="1500" height="500" fill="url(#bgGrad)"/>
            <rect width="1500" height="500" fill="url(#dots)"/>
            <rect width="1500" height="500" fill="url(#grid)"/>
            <line x1="80" y1="0" x2="80" y2="500" stroke="#C9A84C" stroke-width="1" opacity="0.15"/>
            <line x1="100" y1="0" x2="100" y2="500" stroke="#C9A84C" stroke-width="0.5" opacity="0.1"/>
            <line x1="120" y1="0" x2="120" y2="500" stroke="#C9A84C" stroke-width="0.5" opacity="0.1"/>
            <line x1="140" y1="0" x2="140" y2="500" stroke="#C9A84C" stroke-width="1" opacity="0.05"/>
            <line x1="0" y1="420" x2="1500" y2="420" stroke="#C9A84C" stroke-width="1" opacity="0.15"/>
            <line x1="0" y1="440" x2="1500" y2="440" stroke="#7A8480" stroke-width="1" opacity="0.15" stroke-dasharray="4 4"/>
            <rect x="200" y="200" width="4" height="60" fill="#C0392B"/>
            <circle cx="202" cy="180" r="3" fill="#C0392B"/>
            <circle cx="202" cy="280" r="3" fill="#C0392B"/>
            <text x="230" y="240" class="font-jp" font-size="52" fill="#F4EDD8" font-weight="800" letter-spacing="16">仕掛け帳</text>
            <text x="235" y="275" class="font-en" font-size="16" fill="#C9A84C" font-weight="600" letter-spacing="8">SUBSCRIPTION MECHANISM</text>
            <path d="M 600 500 L 800 200 L 1500 200" fill="none" stroke="#C9A84C" stroke-width="1" opacity="0.1"/>
            <path d="M 650 500 L 850 250 L 1500 250" fill="none" stroke="#7A8480" stroke-width="1" opacity="0.15" stroke-dasharray="10 5"/>
            <g transform="translate(1150, 250)">
                <circle cx="0" cy="0" r="180" fill="none" stroke="#C9A84C" stroke-width="0.5" opacity="0.3" stroke-dasharray="2 6"/>
                <circle cx="0" cy="0" r="165" fill="none" stroke="#1F1C16" stroke-width="1"/>
                <circle cx="0" cy="0" r="130" fill="none" stroke="#1F1C16" stroke-width="16"/>
                <path d="M 0 -130 A 130 130 0 1 1 -123.6 40.1" fill="none" stroke="#C9A84C" stroke-width="16" stroke-linecap="round"/>
                <path d="M -129.5 11.4 A 130 130 0 0 1 -100 -83" fill="none" stroke="#4CAF88" stroke-width="16" stroke-linecap="round" opacity="0.8"/>
                <text x="0" y="-5" class="font-en" font-size="56" fill="#F4EDD8" font-weight="700" text-anchor="middle" letter-spacing="2">$164</text>
                <text x="0" y="30" class="font-jp" font-size="11" fill="#7A8480" font-weight="700" text-anchor="middle" letter-spacing="4">TOTAL MONTHLY</text>
                <line x1="0" y1="-145" x2="0" y2="-155" stroke="#C0392B" stroke-width="2"/>
                <line x1="0" y1="145" x2="0" y2="155" stroke="#C9A84C" stroke-width="2" opacity="0.5"/>
                <line x1="-145" y1="0" x2="-155" y2="0" stroke="#C9A84C" stroke-width="2" opacity="0.5"/>
                <line x1="145" y1="0" x2="155" y2="0" stroke="#C9A84C" stroke-width="2" opacity="0.5"/>
            </g>
            <g transform="translate(1360, 100)" opacity="0.6">
                <rect x="0" y="0" width="80" height="3" fill="#1F1C16" rx="1.5"/>
                <rect x="0" y="0" width="30" height="3" fill="#C9A84C" rx="1.5"/>
                <rect x="0" y="20" width="80" height="3" fill="#1F1C16" rx="1.5"/>
                <rect x="0" y="20" width="60" height="3" fill="#C9A84C" rx="1.5"/>
                <rect x="0" y="40" width="80" height="3" fill="#1F1C16" rx="1.5"/>
                <rect x="0" y="40" width="20" height="3" fill="#C9A84C" rx="1.5"/>
            </g>
        </svg>